<svg width="2560" height="1365" viewBox="0 0 2560 1365" fill="none" xmlns="http://www.w3.org/2000/svg">
<path d="M2727.74 687.076C2710.23 737.708 2642.59 908.417 2444.44 891.237C2209.84 870.896 2152.99 691.202 1441.61 807.38C730.228 923.557 691.826 1048.49 546.12 1012.53C400.413 976.56 526.187 780.126 281.016 841.148C30.4996 903.5 51.9999 1136.5 -143.266 1086.01" stroke="#AA968E" stroke-width="5" stroke-linecap="round"/>
<path d="M-32.9996 1125.5C93.0004 1054.5 114.354 930.898 241.446 896.262C349.017 866.946 416.15 889.577 448.676 890.297" stroke="#AA968E" stroke-width="5" stroke-linecap="round"/>
<path d="M1.50238 1227.31C25.9596 1170.74 116.325 973.803 248.957 939.872C361.217 911.153 431.381 933.995 465.35 934.858" stroke="#AA968E" stroke-width="5" stroke-linecap="round"/>
<path d="M23.4947 1271.24C142.148 1006.17 152.349 1153.73 263.949 1037.8C363.872 934.01 453.354 977.962 487.322 978.829" stroke="#AA968E" stroke-width="5" stroke-linecap="round"/>
<path d="M1385.37 817.156C1909.07 728.075 2231.53 938.034 2412.09 992.058C2523.52 1025.4 2586.56 1017.13 2663.8 1115.72" stroke="#AA968E" stroke-width="5" stroke-linecap="round"/>
<path d="M104.54 317.378C126.075 251.077 194.259 253.131 237.367 261.354C309.568 275.127 339.318 262.643 346.856 341.433C354.394 420.224 246.174 461.102 187.514 448.861C137.687 438.464 81.8308 387.296 104.54 317.378Z" stroke="#AA968E" stroke-width="5" stroke-linecap="round"/>
<path d="M1658.71 216.166C1676.11 298.336 1759.39 285.996 1827.09 270.761C1894.96 255.488 2016.17 233.369 1998.31 142.827C1980.46 52.2852 1836.7 58.5488 1766.22 80.9132C1706.35 99.9098 1639.33 124.667 1658.71 216.166Z" stroke="#AA968E" stroke-width="5" stroke-linecap="round"/>
<path d="M2574.49 785.679C2570.4 735.835 2520.61 735.579 2479.75 738.428C2438.79 741.285 2366.01 743.356 2369.74 798.16C2373.47 852.964 2458.29 862.24 2501.32 855.453C2537.87 849.688 2579.04 841.182 2574.49 785.679Z" stroke="#AA968E" stroke-width="5" stroke-linecap="round"/>
<path d="M2350.85 972.067C2368.54 1196.93 2535.21 1230.78 2617.56 1200.76" stroke="#AA968E" stroke-width="5" stroke-linecap="round"/>
<path d="M2206.05 913.594C2213.54 1049.63 2313.65 1072.92 2363.77 1056.21" stroke="#AA968E" stroke-width="5" stroke-linecap="round"/>
<path d="M2287.31 223.654C2274.51 181.216 2314.99 163.402 2349.2 151.299C2383.5 139.165 2443.45 115.142 2458.15 161.532C2472.85 207.922 2406.75 245.54 2369.5 255.17C2337.86 263.35 2301.56 270.91 2287.31 223.654Z" stroke="#AA968E" stroke-width="5" stroke-linecap="round"/>
<path d="M174.346 1040.49C167.976 1021.33 182.989 1010.18 195.777 1002.15C208.597 994.106 230.913 978.707 238.149 999.596C245.385 1020.48 221.157 1042.71 207.113 1049.78C195.185 1055.79 181.441 1061.81 174.346 1040.49Z" stroke="#AA968E" stroke-width="5" stroke-linecap="round"/>
</svg>
