<svg width="2560" height="1011" viewBox="0 0 2560 1011" fill="none" xmlns="http://www.w3.org/2000/svg">
<path d="M-167.178 333.447C-148.094 383.559 -75.0732 552.265 124.409 529.416C360.58 502.364 412.927 321.112 1134.04 416.87C1855.15 512.628 1897.39 636.417 2043.42 596.291C2189.45 556.165 2057.04 363.409 2306.15 417.385C2560.69 472.539 2545.51 706.065 2741.14 650" stroke="#BCABA4" stroke-width="5" stroke-linecap="round"/>
<path d="M2630.97 692.635C2501.84 625.271 2476.84 502.327 2347.62 471.344C2238.25 445.121 2171.14 469.665 2138.34 471.317" stroke="#BCABA4" stroke-width="5" stroke-linecap="round"/>
<path d="M2599 795.397C2572.74 739.547 2476.05 545.273 2341.26 515.153C2227.18 489.66 2157.01 514.503 2122.76 516.338" stroke="#BCABA4" stroke-width="5" stroke-linecap="round"/>
<path d="M2578.03 839.932C2450.9 578.363 2444.72 726.159 2328.87 613.477C2225.14 512.584 2136.07 559.082 2101.81 560.921" stroke="#BCABA4" stroke-width="5" stroke-linecap="round"/>
<path d="M1191.06 425.032C660.1 350.984 340.568 570.097 159.862 629.273C48.3543 665.788 -15.4936 659.328 -90.6825 760.096" stroke="#BCABA4" stroke-width="5" stroke-linecap="round"/>
<path d="M2434.57 230.441C2410.99 164.782 2342.24 168.789 2298.97 178.243C2226.5 194.078 2196.12 182.451 2190.72 261.427C2185.31 340.403 2295.66 378.166 2354.51 364.25C2404.51 352.43 2459.44 299.682 2434.57 230.441Z" stroke="#BCABA4" stroke-width="5" stroke-linecap="round"/>
<path d="M2623.85 495.692C2597.73 534.437 2558.77 511.69 2528.2 490.528C2497.56 469.314 2441.74 434.074 2469.86 391.122C2497.98 348.169 2568.43 379.715 2598.87 405.085C2624.73 426.634 2652.94 452.549 2623.85 495.692Z" stroke="#BCABA4" stroke-width="5" stroke-linecap="round"/>
<path d="M36.7379 396.429C32.3323 330.297 98.1463 320.039 152.761 315.629C207.51 311.208 304.181 299.421 310.037 371.981C315.892 444.541 205.511 473.602 147.258 473.282C97.7776 473.011 41.6437 470.069 36.7379 396.429Z" stroke="#BCABA4" stroke-width="5" stroke-linecap="round"/>
<path d="M2072.6 496.131C2061.72 458.611 2023.2 466.18 1992.06 474.733C1960.84 483.308 1904.92 496.243 1916.28 537.616C1927.65 578.989 1994.65 572.862 2026.85 560.956C2054.21 550.843 2084.71 537.911 2072.6 496.131Z" stroke="#BCABA4" stroke-width="5" stroke-linecap="round"/>
<path d="M221.11 607.535C209.532 832.815 42.2891 871.43 -41.6516 843.78" stroke="#BCABA4" stroke-width="5" stroke-linecap="round"/>
<path d="M365.595 544.936C361.833 681.137 261.465 707.287 210.417 692.019" stroke="#BCABA4" stroke-width="5" stroke-linecap="round"/>
<path d="M460.267 505.001C457.816 593.745 392.419 610.784 359.157 600.836" stroke="#BCABA4" stroke-width="5" stroke-linecap="round"/>
<path d="M-57.0641 213.207C-66.4082 261.196 -19.5953 276.061 19.6332 285.389C58.9581 294.741 128.024 314.171 139.018 261.631C150.012 209.092 72.6007 175.469 30.2924 169.201C-5.64483 163.878 -46.6591 159.769 -57.0641 213.207Z" stroke="#BCABA4" stroke-width="5" stroke-linecap="round"/>
<path d="M2419.36 613.591C2425.26 594.263 2409.79 583.549 2396.67 575.889C2383.5 568.21 2360.55 553.457 2353.84 574.544C2347.12 595.632 2372.19 617.158 2386.56 623.822C2398.76 629.482 2412.8 635.113 2419.36 613.591Z" stroke="#BCABA4" stroke-width="5" stroke-linecap="round"/>
</svg>
