<svg width="78" height="77" viewBox="0 0 78 77" fill="none" xmlns="http://www.w3.org/2000/svg">
<path d="M38.8398 0C60.1028 0 77.3398 17.3004 77.3398 38.6415C77.3398 58.3978 62.5672 74.689 43.5042 77V50.4497L53.9192 50.4497L56.0797 38.6415H43.5042V34.4653C43.5042 31.3453 44.1139 29.1853 45.5128 27.8053C46.9117 26.4252 49.0997 25.8252 52.2562 25.8252C53.0551 25.8252 53.7904 25.8332 54.4429 25.8491C55.3919 25.8723 56.1655 25.9124 56.704 25.9693V15.2649C56.4888 15.2049 56.2347 15.1449 55.9501 15.0859C55.3053 14.952 54.5036 14.823 53.6419 14.7097C51.8412 14.473 49.778 14.3048 48.3346 14.3048C42.5051 14.3048 38.0994 15.5565 35.0242 18.1492C31.3127 21.2783 29.5392 26.3607 29.5392 33.5533V38.6415H21.6002V50.4497H29.5392V76.1451C12.77 71.9693 0.339844 56.7636 0.339844 38.6415C0.339844 17.3004 17.5769 0 38.8398 0Z" fill="url(#paint0_linear_2_185)"/>
<defs>
<linearGradient id="paint0_linear_2_185" x1="38.0207" y1="106.167" x2="38.0207" y2="-25.6667" gradientUnits="userSpaceOnUse">
<stop stop-color="#CAB4A3"/>
<stop offset="1" stop-color="white"/>
</linearGradient>
</defs>
</svg>
