<svg width="115" height="114" viewBox="0 0 115 114" fill="none" xmlns="http://www.w3.org/2000/svg">
<path d="M88.1582 33.2917C84.3905 33.2991 81.327 30.2484 81.3196 26.4806C81.3122 22.7129 84.3629 19.6493 88.1324 19.6419C91.9019 19.6346 94.9655 22.6871 94.9729 26.4548C94.9784 30.2226 91.9277 33.2843 88.1582 33.2917Z" fill="url(#paint0_linear_2_165)"/>
<path fill-rule="evenodd" clip-rule="evenodd" d="M57.8931 86.1009C41.7625 86.1322 28.6585 73.0816 28.6272 56.947C28.5958 40.8161 41.65 27.7101 57.7807 27.6788C73.9151 27.6474 87.0209 40.7055 87.0523 56.8346C87.0836 72.9691 74.0257 86.0696 57.8931 86.1009ZM57.801 37.9295C47.3311 37.9479 38.8556 46.4548 38.874 56.9267C38.8943 67.4005 47.403 75.8742 57.8729 75.8539C68.3465 75.8336 76.822 67.3286 76.8016 56.8548C76.7814 46.3811 68.2728 37.9092 57.801 37.9295Z" fill="url(#paint1_linear_2_165)"/>
<path fill-rule="evenodd" clip-rule="evenodd" d="M20.4761 3.06494C24.089 1.64927 28.2234 0.679677 34.2768 0.393967C40.345 0.102749 42.2823 0.0363681 57.7291 0.00688684C73.1796 -0.0225944 75.1169 0.0363567 81.185 0.305477C87.2403 0.567225 91.3767 1.52208 94.9969 2.92302C98.7424 4.36632 101.92 6.3092 105.087 9.46312C108.254 12.6207 110.204 15.7876 111.666 19.5276C113.08 23.1442 114.049 27.2751 114.337 33.3323C114.624 39.3986 114.694 41.3341 114.724 56.7829C114.753 72.23 114.691 74.1691 114.425 80.241C114.162 86.2926 113.209 90.4309 111.808 94.0493C110.361 97.7949 108.422 100.973 105.268 104.14C102.114 107.308 98.9433 109.257 95.2033 110.72C91.5867 112.132 87.4559 113.102 81.4026 113.391C75.3344 113.679 73.3971 113.747 57.9448 113.777C42.4997 113.806 40.5625 113.747 34.4944 113.48C28.4391 113.214 24.3009 112.261 20.6825 110.862C16.937 109.413 13.7591 107.476 10.5923 104.32C7.42372 101.165 5.47174 97.9959 4.01187 94.2558C2.59621 90.641 1.63023 86.5083 1.34087 80.4567C1.05149 74.3866 0.983314 72.4475 0.953844 57.0005C0.92426 41.5516 0.985123 39.6161 1.25052 33.5479C1.51783 27.4908 2.46715 23.3543 3.86808 19.7322C5.31502 15.9884 7.25416 12.8124 10.4118 9.64375C13.5656 6.47695 16.736 4.52297 20.4761 3.06494ZM24.3747 101.305C26.3821 102.077 29.394 102.999 34.9405 103.24C40.9422 103.5 42.7394 103.557 57.9263 103.528C73.1188 103.5 74.916 103.435 80.9159 103.153C86.4569 102.89 89.4688 101.957 91.4706 101.176C94.1268 100.138 96.0181 98.8972 98.005 96.9083C99.9921 94.912 101.222 93.0152 102.25 90.359C103.024 88.3498 103.944 85.3359 104.186 79.7894C104.449 73.7912 104.504 71.9922 104.475 56.8014C104.447 41.6143 104.383 39.8152 104.097 33.8152C103.835 28.2723 102.905 25.2603 102.121 23.2603C101.083 20.6004 99.8465 18.7129 97.8521 16.7239C95.8576 14.735 93.9609 13.5092 91.301 12.4806C89.2973 11.7046 86.2817 10.7866 80.739 10.5451C74.7371 10.2815 72.9381 10.228 57.7475 10.2576C42.5606 10.2871 40.7634 10.3479 34.7635 10.6318C29.2189 10.8953 26.2106 11.8262 24.2051 12.6097C21.5507 13.6474 19.6595 14.8806 17.6706 16.8769C15.6853 18.8732 14.4559 20.7663 13.4273 23.4281C12.6569 25.4336 11.7296 28.4493 11.4919 33.9922C11.2301 39.994 11.1749 41.7931 11.2043 56.9802C11.232 72.1709 11.2965 73.97 11.5785 79.9663C11.8384 85.5129 12.7766 88.5212 13.5564 90.5286C14.5941 93.1811 15.831 95.0724 17.8236 97.0613C19.8199 99.0429 21.7167 100.276 24.3747 101.305Z" fill="url(#paint2_linear_2_165)"/>
<defs>
<linearGradient id="paint0_linear_2_165" x1="56.6283" y1="156.883" x2="56.6283" y2="-37.9278" gradientUnits="userSpaceOnUse">
<stop stop-color="#675343"/>
<stop offset="1" stop-color="#B8A49C"/>
</linearGradient>
<linearGradient id="paint1_linear_2_165" x1="56.6283" y1="156.883" x2="56.6283" y2="-37.9278" gradientUnits="userSpaceOnUse">
<stop stop-color="#675343"/>
<stop offset="1" stop-color="#B8A49C"/>
</linearGradient>
<linearGradient id="paint2_linear_2_165" x1="56.6283" y1="156.883" x2="56.6283" y2="-37.9278" gradientUnits="userSpaceOnUse">
<stop stop-color="#675343"/>
<stop offset="1" stop-color="#B8A49C"/>
</linearGradient>
</defs>
</svg>
