<svg width="114" height="114" viewBox="0 0 114 114" fill="none" xmlns="http://www.w3.org/2000/svg">
<path d="M57 9.5C30.2188 9.5 9.5 30.2188 9.5 57C9.5 83.7812 30.2188 104.5 57 104.5C83.7812 104.5 104.5 83.7812 104.5 57C104.5 30.2188 83.7812 9.5 57 9.5ZM57 19C78.5062 19 95 35.4938 95 57C95 78.5062 78.5062 95 57 95C35.4938 95 19 78.5062 19 57C19 35.4938 35.4938 19 57 19ZM57 28.5C52.2438 28.5 47.5 33.2438 47.5 38V47.5H38C33.2438 47.5 28.5 52.2438 28.5 57C28.5 61.7562 33.2438 66.5 38 66.5H47.5V76C47.5 80.7562 52.2438 85.5 57 85.5C61.7562 85.5 66.5 80.7562 66.5 76V66.5H76C80.7562 66.5 85.5 61.7562 85.5 57C85.5 52.2438 80.7562 47.5 76 47.5H66.5V38C66.5 33.2438 61.7562 28.5 57 28.5Z" fill="url(#paint0_linear_linktree)"/>
<defs>
<linearGradient id="paint0_linear_linktree" x1="57" y1="104.5" x2="57" y2="9.5" gradientUnits="userSpaceOnUse">
<stop stop-color="#675343"/>
<stop offset="1" stop-color="#B8A49C"/>
</linearGradient>
</defs>
</svg>
