<svg
    width="1028"
    height="393"
    viewBox="0 0 1028 393"
    fill="none"
    xmlns="http://www.w3.org/2000/svg"
>
<g opacity="0.97">
<path
            fill-rule="evenodd"
            clip-rule="evenodd"
            d="M195.153 151.308C185.174 151.309 175.614 155.181 168.573 162.056C161.533 168.93 157.587 178.242 157.586 187.942V257.59H130V187.941C130.002 171.04 136.879 154.842 149.102 142.906C161.324 130.972 177.889 124.275 195.152 124.273H195.153C212.417 124.273 228.984 130.969 241.207 142.904C253.432 154.84 260.31 171.039 260.312 187.941V257.59H232.726V187.942C232.725 178.242 228.778 168.929 221.737 162.055C214.695 155.179 205.134 151.308 195.155 151.308"
            fill="#ffffff"
        />
<path
            fill-rule="evenodd"
            clip-rule="evenodd"
            d="M339.521 235.465C329.542 235.463 319.982 231.591 312.941 224.716C305.901 217.842 301.955 208.53 301.954 198.83V129.182H274.368V198.831C274.37 215.732 281.247 231.93 293.47 243.866C305.692 255.8 322.257 262.497 339.52 262.499H339.521C356.785 262.499 373.352 255.803 385.575 243.868C397.8 231.932 404.678 215.733 404.68 198.831V129.182H377.094V198.83C377.092 208.53 373.146 217.843 366.105 224.717C359.063 231.593 349.502 235.464 339.523 235.465"
            fill="#ffffff"
        />
<path
            fill-rule="evenodd"
            clip-rule="evenodd"
            d="M832.842 235.465C822.863 235.463 813.303 231.591 806.261 224.716C799.222 217.842 795.276 208.53 795.274 198.83V129.182H767.688V198.831C767.69 215.732 774.567 231.93 786.791 243.866C799.012 255.8 815.578 262.497 832.84 262.499H832.842C850.106 262.499 866.673 255.803 878.896 243.868C891.121 231.932 897.998 215.733 898 198.831V129.182H870.415V198.83C870.413 208.53 866.466 217.843 859.426 224.717C852.384 231.593 842.823 235.464 832.843 235.465"
            fill="#ffffff"
        />
<path
            fill-rule="evenodd"
            clip-rule="evenodd"
            d="M688.482 151.308C678.502 151.308 668.941 155.179 661.899 162.055C654.859 168.929 650.912 178.242 650.911 187.942V257.59H623.325V187.941C623.327 171.039 630.205 154.84 642.429 142.904C654.653 130.969 671.219 124.273 688.483 124.273H688.485C705.747 124.275 722.313 130.972 734.534 142.906C746.758 154.842 753.635 171.04 753.636 187.941L753.636 187.942L753.636 257.59H726.051V187.944V187.942C726.049 178.242 722.103 168.93 715.064 162.056C708.023 155.181 698.462 151.309 688.483 151.308"
            fill="#ffffff"
        />
<path
            fill-rule="evenodd"
            clip-rule="evenodd"
            d="M496.431 151.034C468.524 151.034 446.318 170.049 446.318 195.865C446.318 222.374 466.283 235.966 484.018 235.966C501.556 235.966 521.488 222.625 521.488 198.344H549.074C549.074 240.296 513.835 263 484.018 263C452.559 263 418.732 238.744 418.732 195.865C418.732 152.295 456.339 124 496.431 124C557.624 124 609.809 183.41 609.809 257.593H582.223C582.223 193.903 538.225 151.034 496.431 151.034Z"
            fill="#ffffff"
        />
</g>
</svg>
