<svg width="124" height="101" viewBox="0 0 124 101" fill="none" xmlns="http://www.w3.org/2000/svg">
<path fill-rule="evenodd" clip-rule="evenodd" d="M8.52041 43.2472C41.7909 29.1013 63.9765 19.7755 75.0771 15.2697C106.772 2.40481 113.357 0.170039 117.65 0.0962458C118.594 0.0800157 120.705 0.308351 122.072 1.39113C123.227 2.30541 123.545 3.54048 123.697 4.40732C123.849 5.27415 124.038 7.24884 123.888 8.79179C122.17 26.4029 114.738 69.1403 110.957 88.865C109.358 97.2113 106.208 100.01 103.158 100.284C96.5303 100.879 91.4976 96.0092 85.0784 91.9029C75.0337 85.4772 69.3591 81.4772 59.6089 75.207C48.3409 67.9606 55.6455 63.9779 62.0671 57.469C63.7476 55.7656 92.949 29.8453 93.5142 27.4939C93.5849 27.1998 93.6505 26.1036 92.9832 25.5248C92.3159 24.9459 91.331 25.1439 90.6202 25.3013C89.6128 25.5244 73.5662 35.8748 42.4805 56.3525C37.9257 59.4047 33.8002 60.8919 30.1038 60.814C26.0289 60.728 18.1903 58.5655 12.3631 56.717C5.21588 54.4497 -0.464618 53.251 0.0300263 49.4005C0.287667 47.3949 3.1178 45.3438 8.52041 43.2472Z" fill="url(#paint0_linear_2_167)"/>
<defs>
<linearGradient id="paint0_linear_2_167" x1="60.6528" y1="138.302" x2="60.6528" y2="-33.3171" gradientUnits="userSpaceOnUse">
<stop stop-color="#675343"/>
<stop offset="1" stop-color="#B8A49C"/>
</linearGradient>
</defs>
</svg>
