<svg width="78" height="77" viewBox="0 0 78 77" fill="none" xmlns="http://www.w3.org/2000/svg">
<path d="M54.6398 18.5C52.8398 16.8 51.8398 14.5 51.8398 12H44.8398V48.5C44.8398 52.9 41.2398 56.5 36.8398 56.5C32.4398 56.5 28.8398 52.9 28.8398 48.5C28.8398 44.1 32.4398 40.5 36.8398 40.5C37.6398 40.5 38.4398 40.6 39.1398 40.9V33.7C38.4398 33.6 37.6398 33.5 36.8398 33.5C28.5398 33.5 21.8398 40.2 21.8398 48.5C21.8398 56.8 28.5398 63.5 36.8398 63.5C45.1398 63.5 51.8398 56.8 51.8398 48.5V28.2C54.9398 30.4 58.7398 31.7 62.8398 31.7V24.7C58.9398 24.7 55.5398 22.2 54.6398 18.5Z" fill="url(#paint0_linear_tiktok)"/>
<defs>
<linearGradient id="paint0_linear_tiktok" x1="42.3398" y1="63.5" x2="42.3398" y2="12" gradientUnits="userSpaceOnUse">
<stop stop-color="#CAB4A3"/>
<stop offset="1" stop-color="white"/>
</linearGradient>
</defs>
</svg>
