<svg width="114" height="114" viewBox="0 0 114 114" fill="none" xmlns="http://www.w3.org/2000/svg">
<path d="M0.0908508 113.783L8.12705 84.5648C3.16814 76.0121 0.562448 66.3168 0.567211 56.375C0.581502 25.2931 25.9953 0 57.2207 0C72.3738 0.00474098 86.5979 5.87881 97.2969 16.5365C107.991 27.1942 113.879 41.3603 113.874 56.4271C113.86 87.5137 88.4462 112.807 57.2207 112.807C47.7412 112.802 38.3997 110.436 30.1254 105.942L0.0908508 113.783ZM31.5163 95.7345C39.5001 100.452 47.1219 103.277 57.2017 103.282C83.1538 103.282 104.295 82.2607 104.309 56.4176C104.318 30.5224 83.2777 9.52936 57.2398 9.51988C31.2686 9.51988 10.1421 30.5414 10.1325 56.3797C10.1278 66.9284 13.2336 74.8268 18.4498 83.0903L13.6909 100.385L31.5163 95.7345ZM85.7595 69.8298C85.407 69.242 84.4638 68.8911 83.0442 68.1847C81.6295 67.4783 74.6698 64.0696 73.3694 63.6002C72.0737 63.1308 71.1305 62.8938 70.1825 64.3066C69.2393 65.7147 66.5241 68.8911 65.7 69.8298C64.8759 70.7686 64.047 70.8871 62.6322 70.1807C61.2174 69.4743 56.6539 67.9903 51.2472 63.1877C47.0409 59.4518 44.1971 54.8389 43.3729 53.4261C42.5488 52.018 43.2872 51.2547 43.9922 50.553C44.6305 49.9225 45.407 48.9079 46.1168 48.083C46.8361 47.2675 47.0695 46.6797 47.5459 45.7362C48.0175 44.7975 47.784 43.9726 47.4268 43.2662C47.0695 42.5645 44.2399 35.6284 43.0633 32.8076C41.9105 30.0625 40.7434 30.4323 39.8765 30.3897L37.1612 30.3422C36.218 30.3422 34.6841 30.6931 33.3884 32.1059C32.0927 33.5187 28.4343 36.9227 28.4343 43.8588C28.4343 50.7948 33.5075 57.4938 34.2125 58.4325C34.9223 59.3712 44.1923 73.6037 58.3926 79.7053C61.77 81.156 64.409 82.0236 66.4621 82.6731C69.8538 83.7446 72.9406 83.5929 75.3796 83.2326C78.0996 82.8296 83.754 79.8238 84.9354 76.5336C86.1168 73.2386 86.1168 70.4177 85.7595 69.8298Z" fill="url(#paint0_linear_2_166)"/>
<defs>
<linearGradient id="paint0_linear_2_166" x1="55.7721" y1="156.883" x2="55.7721" y2="-37.9278" gradientUnits="userSpaceOnUse">
<stop stop-color="#675343"/>
<stop offset="1" stop-color="#B8A49C"/>
</linearGradient>
</defs>
</svg>
